<svg width="32" height="34" viewBox="0 0 32 34" fill="none" xmlns="http://www.w3.org/2000/svg">
<g clip-path="url(#clip0_1577_22937)">
<path d="M4.67969 9.82596C4.67969 9.82596 15.5835 -9.2498 31.9728 5.84897L27.2902 9.82596C27.2902 9.82596 17.4568 -0.0153839 10.2991 12.4549L4.67969 9.82596Z" fill="#5FBAFC"/>
<path d="M27.3565 24.1835L31.9722 28.1605C31.9722 28.1605 17.9245 43.2589 5.01367 25.0598L10.4322 22.1621C10.4322 22.1621 17.5899 32.8788 27.0889 24.1835" fill="#5FBAFC"/>
<path d="M30.2441 22.4246C30.2516 22.4238 30.2587 22.4235 30.2664 22.4227C30.3522 22.4092 30.4382 22.3968 30.5243 22.3826C30.5336 22.3809 30.5424 22.3798 30.5516 22.3783C30.5878 22.3026 30.6132 22.2234 30.6249 22.1418L30.6326 22.0897C30.6377 22.052 30.6407 22.0142 30.6407 21.9763V11.9571C30.6407 11.537 30.3089 11.1652 29.8214 11.039C29.3335 10.913 28.8025 11.0615 28.5098 11.4058L24.1415 16.5403L20.584 12.0851V15.5669L23.1402 18.7818C23.3546 19.0472 23.7146 19.208 24.1014 19.2121C24.4876 19.2146 24.8539 19.0622 25.076 18.8011L28.2984 15.0133V21.7561L30.2441 22.4246Z" fill="#5FBAFC"/>
<path d="M29.4312 11.4514C29.9193 11.5777 30.2512 11.9494 30.2512 12.3697V22.424C30.2563 22.4235 30.2613 22.4232 30.2669 22.4227C30.3526 22.4092 30.4386 22.3968 30.5248 22.3826C30.5261 22.382 30.5275 22.382 30.529 22.3817L30.6253 22.1418L30.6331 22.0897C30.6381 22.052 30.6411 22.0142 30.6411 21.9763V11.9571C30.6411 11.537 30.3094 11.1652 29.8218 11.039C29.334 10.913 28.8029 11.0615 28.5102 11.4058L28.3027 11.6494C28.6058 11.4291 29.0331 11.3486 29.4312 11.4514Z" fill="#5FBAFC"/>
<path opacity="0.4" d="M26.8431 16.7239L25.0763 18.8009C24.8536 19.0621 24.4874 19.2143 24.1017 19.2119C23.7144 19.208 23.3543 19.0469 23.1402 18.7816L20.584 15.5667V12.085L24.1413 16.5403L26.8301 13.3801C26.8475 14.4945 26.8487 15.6093 26.8431 16.7239Z" fill="#5FBAFC"/>
<path d="M14.5332 17.2988L21.1747 22.0917C21.3026 22.184 21.4476 22.2505 21.5999 22.292C21.6883 21.4761 21.7664 20.6601 21.7963 19.8416L16.1622 15.7754L14.5332 17.2988Z" fill="#5FBAFC"/>
<path d="M15.3016 22.4069H12.8359V12.0091C12.8359 11.4496 13.3878 10.9961 14.0687 10.9961H17.9938C20.2051 10.9961 22.0044 12.4744 22.0044 14.2915V14.3827C22.0044 16.1997 20.2053 17.6777 17.9938 17.6777H15.3015V22.4069H15.3016ZM15.3016 15.6519H17.994C18.846 15.6519 19.5389 15.0825 19.5389 14.3826V14.2914C19.5389 13.5915 18.8459 13.0221 17.994 13.0221H15.3016V15.6519Z" fill="#5FBAFC"/>
<path d="M17.993 16.0861C18.845 16.0861 19.5379 15.5169 19.5379 14.817V14.7258C19.5379 14.6674 19.5315 14.6103 19.5223 14.5542C19.4198 15.1728 18.7738 15.6517 17.9933 15.6517H15.3008V16.0863L17.993 16.0861Z" fill="#5FBAFC"/>
<path d="M17.9936 10.9961H14.0684C13.3876 10.9961 12.8359 11.4497 12.8359 12.0091V12.4435C12.8359 11.8842 13.3878 11.4306 14.0684 11.4306H17.9936C20.1349 11.4306 21.8897 12.8167 21.9986 14.5543C22.002 14.4974 22.0042 14.4401 22.0042 14.3826V14.2914C22.0042 12.4744 20.205 10.9961 17.9936 10.9961Z" fill="#5FBAFC"/>
<path d="M4.28959 13.0448C4.28959 13.0448 5.521 12.7003 4.80764 11.3464L5.53989 10.5938L9.59261 12.4706C9.59261 12.4706 8.95912 14.1275 9.01202 14.9283C9.01202 14.9283 7.7422 13.9816 7.4222 13.8815C7.4222 13.8815 6.36437 13.3916 6.41232 14.4291C6.41232 14.4291 6.26901 15.1432 6.93276 15.9718C7.59641 16.8002 6.92817 16.0621 6.92817 16.0621C6.92817 16.0621 7.75935 16.5856 7.87222 17.3651C7.87222 17.3651 6.61331 19.6982 5.93599 20.4405C5.93599 20.4405 4.57264 22.3259 4.28538 22.4905C4.28538 22.4905 3.60191 23.6524 3.03609 22.9404C3.03609 22.9404 2.54601 22.5772 3.271 21.6456L4.62307 19.5926C4.62307 19.5926 4.78362 18.8097 4.20065 19.4664L2.69821 21.7556C2.69821 21.7556 2.13753 22.1066 1.90472 21.4431C1.90472 21.4431 1.64964 21.0851 2.16439 20.4109L3.21654 18.6842C3.21654 18.6842 3.35068 18.1509 2.86252 18.5022L1.59178 20.521C1.59178 20.521 0.996894 20.8634 0.862751 20.0968C0.862751 20.0968 0.868801 19.4943 1.11792 19.0819L1.81835 17.8144C1.81835 17.8144 1.89097 17.2288 1.39483 17.7245L0.596297 19.2782C0.596297 19.2782 -0.222682 18.9225 0.101169 17.8518L0.406041 16.6298C0.406041 16.6298 1.8057 17.7928 2.26855 15.9521C2.26855 15.9521 3.24184 16.1273 3.55323 14.962C3.55323 14.962 5.68512 14.7927 4.28959 13.0448Z" fill="#5FBAFC"/>
<path d="M6.85368 14.1942C6.85368 14.1942 7.22549 14.161 7.5707 14.3773L9.43697 15.8426C9.43697 15.8426 10.1067 17.4416 9.45293 20.1855C9.45293 20.1855 8.91663 21.518 9.27697 22.3972L5.31136 24.476L4.30469 23.1729C4.30469 23.1729 7.35019 19.4956 8.24408 17.5516C8.24408 17.5516 8.39161 16.8204 7.53137 16.0515C7.53137 16.0515 6.64032 15.4762 6.85368 14.1942Z" fill="#7FC8FD"/>
<path d="M1.29617 15.2742C2.14477 15.9389 1.91105 16.1604 1.69604 16.4135C1.48084 16.6665 1.01881 16.7314 0.385685 16.1425C-0.0360911 15.7503 -0.120722 15.2829 0.117307 15.0516C0.547152 14.6339 0.84304 14.9194 1.29617 15.2742Z" fill="#7FC8FD"/>
<path d="M4.18806 11.3811C5.05527 12.0209 4.82475 12.2426 4.61708 12.5019C4.4094 12.7612 4.01916 12.737 3.35688 12.1813C2.82425 11.7345 2.77217 11.431 3.00351 11.1929C3.42097 10.7627 3.72502 11.0395 4.18806 11.3811Z" fill="#7FC8FD"/>
<path d="M2.34916 14.0263C3.40535 14.8688 3.16136 15.0886 2.94277 15.3461C2.72381 15.6036 2.19833 15.6216 1.39961 14.8892C0.867535 14.4013 0.715696 13.8692 0.963444 13.6388C1.4108 13.2226 1.78527 13.5764 2.34916 14.0263Z" fill="#7FC8FD"/>
<path d="M3.39807 12.6891C4.56914 13.6309 4.57272 14.0488 4.35404 14.3063C4.13526 14.5638 3.89962 14.8103 2.93063 14.095C2.12266 13.4985 1.60149 12.7051 1.85254 12.4774C2.30595 12.0666 2.77293 12.1863 3.39807 12.6891Z" fill="#7FC8FD"/>
</g>
<defs>
<clipPath id="clip0_1577_22937">
<rect width="32" height="34" fill="white"/>
</clipPath>
</defs>
</svg>
